<svg width="320" height="220" viewBox="0 0 320 220" fill="none" xmlns="http://www.w3.org/2000/svg">
  <rect width="320" height="220" rx="24" fill="#0C0C0C"/>
  <rect x="18" y="18" width="284" height="184" rx="18" fill="url(#bg)" opacity="0.24"/>
  <g>
    <ellipse cx="158" cy="126" rx="104" ry="54" fill="#201A10"/>
    <ellipse cx="158" cy="126" rx="86" ry="40" fill="#2A2212"/>
  </g>
  <g stroke-linecap="round" filter="url(#glow)">
    <path d="M56 140C100 112 128 96 188 96C230 96 256 104 286 122" stroke="#FFF0BE" stroke-width="2"/>
    <path d="M70 154C116 130 144 120 186 122C224 124 250 134 274 148" stroke="#F6D36A" stroke-width="2"/>
    <path d="M86 112C120 94 144 84 178 84C206 84 226 90 252 104" stroke="#FFE07A" stroke-width="1.6"/>
  </g>
  <defs>
    <filter id="glow" x="42" y="70" width="258" height="98" filterUnits="userSpaceOnUse" color-interpolation-filters="sRGB">
      <feGaussianBlur stdDeviation="3" result="blur"/>
      <feMerge>
        <feMergeNode in="blur"/>
        <feMergeNode in="SourceGraphic"/>
      </feMerge>
    </filter>
    <linearGradient id="bg" x1="24" y1="24" x2="290" y2="188" gradientUnits="userSpaceOnUse">
      <stop stop-color="#151412"/>
      <stop offset="1" stop-color="#090909"/>
    </linearGradient>
  </defs>
</svg>
